Patient4_TMGait_0pt4_01_left_41_GRF.mot
version=1
nRows=58
nColumns=19
inDegrees=no
endheader
time	F1x	F1y	F1z	M1x	M1y	M1z	F2x	F2y	F2z	M2x	M2y	M2z	EC1x	EC1y	EC1z	EC2x	EC2y	EC2z
51.52	-4.0705	7.686	-1.1089	-1.2058	2.4151	4.5895	-34.2885	724.7609	-58.3413	279.1634	81.4762	820.2885	-0.0592	0.0182	-0.0073	-0.0462	0.0165	0.9585
51.5331	-2.7062	5.8491	-0.76017	-1.055	1.6659	3.7586	-32.1598	727.1781	-58.123	279.7316	79.7984	820.2565	-0.0592	0.0182	-0.0073	-0.0462	0.0165	0.9585
51.5461	-1.5791	4.3093	-0.4411	-0.93438	0.98942	3.1178	-30.2981	730.5132	-57.5322	280.7755	77.8686	821.1662	-0.0592	0.0182	-0.0073	-0.0462	0.0165	0.9585
51.5592	-0.73941	3.1656	-0.18135	-0.85246	0.44491	2.7039	-28.8304	735.108	-56.6547	282.4362	75.8656	823.4936	-0.0592	0.0182	-0.0073	-0.0462	0.0165	0.9585
51.5723	-0.15952	2.4071	0.0035898	-0.80605	0.053585	2.4782	-27.7507	741.1808	-55.6503	284.7813	73.9652	827.5033	-0.0592	0.0182	-0.0073	-0.0462	0.0165	0.9585
51.5854	0.18255	1.9818	0.12571	-0.789	-0.21235	2.4047	-26.9695	748.7103	-54.6739	287.7722	72.2838	833.1458	-0.0592	0.0182	-0.0073	-0.0462	0.0165	0.9585
51.5984	0.34209	1.7874	0.19625	-0.78579	-0.37833	2.3969	-26.35	757.4125	-53.8497	291.2611	70.8709	840.0552	-0.0592	0.0182	-0.0073	-0.0462	0.0165	0.9585
51.6115	0.35079	1.7099	0.24328	-0.77599	-0.49041	2.3813	-25.7387	766.7215	-53.268	294.9901	69.7311	847.5539	-0.0592	0.0182	-0.0073	-0.0462	0.0165	0.9585
51.6246	0.24542	1.6292	0.27692	-0.73607	-0.57257	2.2636	-25.01	775.8089	-52.9836	298.6097	68.8461	854.6931	-0.0592	0.0182	-0.0073	-0.0462	0.0165	0.9585
51.6376	0.05644	1.4124	0.31468	-0.63402	-0.65346	1.9324	-24.084	783.7221	-53.004	301.7342	68.1699	860.4164	-0.0592	0.0182	-0.0073	-0.0462	0.0165	0.9585
51.6507	-0.1906	0.93441	0.35248	-0.43726	-0.73833	1.2845	-22.9019	789.514	-53.2785	303.9931	67.6184	863.6999	-0.0592	0.0182	-0.0073	-0.0462	0.0165	0.9585
51.6638	-0.45576	0.083485	0.40101	-0.11423	-0.83514	0.21883	-21.4515	792.3722	-53.6906	305.0797	67.0679	863.6938	-0.0592	0.0182	-0.0073	-0.0462	0.0165	0.9585
51.6769	-0.70057	-1.1892	0.44443	0.35346	-0.92302	-1.3061	-19.7329	791.7253	-54.1208	304.7857	66.4036	859.818	-0.0592	0.0182	-0.0073	-0.0462	0.0165	0.9585
51.6899	-0.86436	-2.8823	0.47647	0.96793	-0.97499	-3.2923	-17.7687	787.3399	-54.4741	303.0342	65.5501	851.864	-0.0592	0.0182	-0.0073	-0.0462	0.0165	0.9585
51.703	-0.87516	-4.87	0.46918	1.6874	-0.93378	-5.5972	-15.601	779.3202	-54.7254	299.8785	64.504	839.9838	-0.0592	0.0182	-0.0073	-0.0462	0.0165	0.9585
51.7161	-0.62629	-6.862	0.40243	2.41	-0.73837	-7.8968	-13.2363	768.1186	-54.9002	295.5061	63.2992	824.6802	-0.0592	0.0182	-0.0073	-0.0462	0.0165	0.9585
51.7291	0.014428	-8.3332	0.23556	2.9452	-0.29356	-9.5967	-10.6607	754.5703	-55.046	290.2474	61.9828	806.844	-0.0592	0.0182	-0.0073	-0.0462	0.0165	0.9585
51.7422	1.1859	-8.4344	-0.072729	2.9872	0.50161	-9.7102	-7.85	739.866	-55.1939	284.5749	60.5821	787.7136	-0.0592	0.0182	-0.0073	-0.0462	0.0165	0.9585
51.7553	3.039	-5.9684	-0.57349	2.1021	1.7555	-6.8489	-4.7964	725.4971	-55.3569	279.0736	59.1172	768.8493	-0.0592	0.0182	-0.0073	-0.0462	0.0165	0.9585
51.7684	5.6575	0.61697	-1.3093	-0.27252	3.5402	0.80742	-1.5176	713.0359	-55.5197	274.3538	57.5914	751.9082	-0.0592	0.0182	-0.0073	-0.0462	0.0165	0.9585
51.7814	9.0214	13.1327	-2.2973	-4.7913	5.8568	15.3749	1.8853	703.7589	-55.654	270.903	56.0234	738.2729	-0.0592	0.0182	-0.0073	-0.0462	0.0165	0.9585
51.7945	12.8947	33.4012	-3.5008	-12.109	8.5668	38.9945	5.2584	698.1911	-55.7078	268.9074	54.4314	728.5879	-0.0592	0.0182	-0.0073	-0.0462	0.0165	0.9585
51.8076	16.7114	62.7637	-4.7925	-22.7071	11.3117	73.2392	8.4458	695.685	-55.6178	268.0902	52.8221	722.3065	-0.0592	0.0182	-0.0073	-0.0462	0.0165	0.9585
51.8206	19.4291	101.3465	-5.9072	-36.6258	13.4051	118.2588	11.2932	694.3017	-55.2976	267.674	51.1691	717.562	-0.0592	0.0182	-0.0073	-0.0462	0.0165	0.9585
51.8337	19.5078	147.0786	-6.3975	-53.1069	13.7855	171.6576	13.6997	691.1495	-54.6283	266.5202	49.3902	711.4826	-0.0592	0.0182	-0.0073	-0.0462	0.0165	0.9585
51.8468	15.8954	195.2936	-5.6065	-70.4284	11.328	228.0597	15.6085	683.0781	-53.4561	263.4043	47.3488	700.8994	-0.0592	0.0182	-0.0073	-0.0462	0.0165	0.9585
51.8599	9.5358	239.9737	-2.8187	-86.368	5.6338	280.4514	17.0277	667.5509	-51.6583	257.3531	44.9191	683.2165	-0.0592	0.0182	-0.0073	-0.0462	0.0165	0.9585
51.8729	2.3919	277.357	1.5807	-99.5649	-2.1173	324.2181	18.0094	643.2888	-49.2455	247.8793	42.0955	657.0821	-0.0592	0.0182	-0.0073	-0.0462	0.0165	0.9585
51.886	-4.0685	307.4598	7.0565	-110.0176	-10.7632	359.1652	18.642	610.2398	-46.4012	234.9652	39.0216	622.3715	-0.0592	0.0182	-0.0073	-0.0462	0.0165	0.9585
51.8991	-8.9889	332.1758	12.9212	-118.4319	-19.2076	387.3702	19.0332	569.1806	-43.2992	218.9245	35.8209	579.7827	-0.0592	0.0182	-0.0073	-0.0462	0.0165	0.9585
51.9121	-12.2178	353.9733	18.7169	-125.7195	-26.849	411.6799	19.2096	521.4114	-39.927	200.2879	32.465	530.5786	-0.0592	0.0182	-0.0073	-0.0462	0.0165	0.9585
51.9252	-13.9925	375.243	24.0132	-132.7665	-33.2956	434.8357	19.1366	468.5363	-36.1641	179.7101	28.8486	476.3597	-0.0592	0.0182	-0.0073	-0.0462	0.0165	0.9585
51.9383	-14.5784	398.0205	28.6991	-140.314	-38.5232	459.1674	18.6925	412.3027	-31.909	157.897	24.9121	418.8942	-0.0592	0.0182	-0.0073	-0.0462	0.0165	0.9585
51.9514	-14.2099	424.0545	32.762	-148.9883	-42.6405	486.6558	17.7073	354.5336	-27.2023	135.5688	20.7427	360.031	-0.0592	0.0182	-0.0073	-0.0462	0.0165	0.9585
51.9644	-13.1359	454.6298	36.5051	-159.224	-46.0929	518.8005	16.0542	297.1002	-22.2544	113.4455	16.576	301.6574	-0.0592	0.0182	-0.0073	-0.0462	0.0165	0.9585
51.9775	-11.5664	490.1799	40.2401	-171.161	-49.3333	556.1251	13.6694	241.8694	-17.3891	92.2324	12.7334	245.6514	-0.0592	0.0182	-0.0073	-0.0462	0.0165	0.9585
51.9906	-9.8189	530.2578	44.3685	-184.6284	-52.9264	598.2098	10.6322	190.6044	-12.9524	72.5908	9.5125	193.7602	-0.0592	0.0182	-0.0073	-0.0462	0.0165	0.9585
52.0036	-8.1705	573.7617	49.0486	-199.2547	-57.1621	643.849	7.1857	144.8988	-9.2069	55.1085	7.0801	147.547	-0.0592	0.0182	-0.0073	-0.0462	0.0165	0.9585
52.0167	-6.8296	619.2567	54.1806	-214.5752	-62.0134	691.4981	3.7031	105.9028	-6.28	40.2092	5.4308	108.1161	-0.0592	0.0182	-0.0073	-0.0462	0.0165	0.9585
52.0298	-5.8686	664.9855	59.3144	-230.0423	-67.025	739.2291	0.55386	74.0944	-4.15	28.0692	4.4187	75.9088	-0.0592	0.0182	-0.0073	-0.0462	0.0165	0.9585
52.0429	-5.2637	708.9233	63.9865	-245.0087	-71.6789	784.818	-1.9844	49.2663	-2.6919	18.6057	3.8316	50.7083	-0.0592	0.0182	-0.0073	-0.0462	0.0165	0.9585
52.0559	-4.9337	748.8824	67.7549	-258.7593	-75.4603	825.8586	-3.7544	30.7007	-1.7214	11.5432	3.4407	31.7989	-0.0592	0.0182	-0.0073	-0.0462	0.0165	0.9585
52.069	-4.7294	782.7628	70.4339	-270.5783	-78.1058	860.0595	-4.7115	17.4095	-1.0775	6.5012	3.076	18.2074	-0.0592	0.0182	-0.0073	-0.0462	0.0165	0.9585
52.0821	-4.525	808.8307	71.9378	-279.8539	-79.4694	885.5632	-4.8622	8.3561	-0.62976	3.0789	2.6197	8.8989	-0.0592	0.0182	-0.0073	-0.0462	0.0165	0.9585
52.0951	-4.1888	825.9199	72.3848	-286.1471	-79.6182	901.1422	-4.3522	2.5958	-0.31592	0.91023	2.0644	2.9263	-0.0592	0.0182	-0.0073	-0.0462	0.0165	0.9585
52.1082	-3.6523	833.653	71.9032	-289.2815	-78.6553	906.448	-3.4838	-0.66633	-0.10231	-0.31031	1.4868	-0.50384	-0.0592	0.0182	-0.0073	-0.0462	0.0165	0.9585
52.1213	-2.8725	832.5778	70.707	-289.3944	-76.7873	902.1632	-2.5367	-2.1336	0.018391	-0.85222	0.9801	-2.0881	-0.0592	0.0182	-0.0073	-0.0462	0.0165	0.9585
52.1344	-1.8947	824.1231	68.9346	-286.9361	-74.1793	889.9287	-1.6805	-2.4236	0.073071	-0.95145	0.57933	-2.4368	-0.0592	0.0182	-0.0073	-0.0462	0.0165	0.9585
52.1474	-0.80898	810.3544	66.7778	-282.5827	-71.073	872.0595	-0.99063	-2.0549	0.078955	-0.80206	0.29582	-2.0813	-0.0592	0.0182	-0.0073	-0.0462	0.0165	0.9585
52.1605	0.32628	793.6059	64.3868	-277.121	-67.6679	851.1057	-0.49691	-1.3828	0.059771	-0.53796	0.11466	-1.3858	-0.0592	0.0182	-0.0073	-0.0462	0.0165	0.9585
52.1736	1.4456	776.1807	61.9866	-271.3351	-64.241	829.5678	-0.16176	-0.63794	0.023841	-0.24634	0.015626	-0.59188	-0.0592	0.0182	-0.0073	-0.0462	0.0165	0.9585
52.1866	2.5084	760.0883	59.7479	-265.9193	-61.0049	809.5672	0.039558	0.048098	-0.0088498	0.02219	-0.031555	0.16543	-0.0592	0.0182	-0.0073	-0.0462	0.0165	0.9585
52.1997	3.4735	746.8809	57.8696	-261.4126	-58.1859	792.7287	0.14037	0.61357	-0.030567	0.24284	-0.047451	0.81835	-0.0592	0.0182	-0.0073	-0.0462	0.0165	0.9585
52.2128	4.3676	737.5568	56.4362	-258.1685	-55.8705	780.0297	0.18304	1.0538	-0.035579	0.41259	-0.049631	1.3531	-0.0592	0.0182	-0.0073	-0.0462	0.0165	0.9585
52.2259	5.2157	732.5308	55.5424	-256.3375	-54.1398	771.8362	0.17709	1.3792	-0.029183	0.53537	-0.038284	1.7703	-0.0592	0.0182	-0.0073	-0.0462	0.0165	0.9585
52.2389	6.0694	731.6929	55.166	-255.8959	-52.9483	767.9606	0.14307	1.6077	-0.015335	0.61971	-0.019248	2.0683	-0.0592	0.0182	-0.0073	-0.0462	0.0165	0.9585
52.252	6.9774	734.5307	55.2826	-256.6802	-52.244	767.8108	0.090691	1.779	-0.0069485	0.68121	0.013926	2.2816	-0.0592	0.0182	-0.0073	-0.0462	0.0165	0.9585
52.2651	7.9656	740.2811	55.7772	-258.441	-51.9005	770.5506	0.030198	1.8936	-0.0077173	0.72414	0.058663	2.4045	-0.0592	0.0182	-0.0073	-0.0462	0.0165	0.9585
